<svg width="23" height="24" viewBox="0 0 23 24" fill="none" xmlns="http://www.w3.org/2000/svg">
<path d="M11.5007 12C12.0277 12 12.4789 11.8042 12.8543 11.4125C13.2296 11.0208 13.4173 10.55 13.4173 10C13.4173 9.45 13.2296 8.97917 12.8543 8.5875C12.4789 8.19583 12.0277 8 11.5007 8C10.9736 8 10.5224 8.19583 10.147 8.5875C9.77166 8.97917 9.58398 9.45 9.58398 10C9.58398 10.55 9.77166 11.0208 10.147 11.4125C10.5224 11.8042 10.9736 12 11.5007 12ZM11.5007 19.35C13.4493 17.4833 14.8947 15.7875 15.8371 14.2625C16.7795 12.7375 17.2507 11.3833 17.2507 10.2C17.2507 8.38333 16.6956 6.89583 15.5855 5.7375C14.4755 4.57917 13.1138 4 11.5007 4C9.88746 4 8.52582 4.57917 7.41576 5.7375C6.30569 6.89583 5.75065 8.38333 5.75065 10.2C5.75065 11.3833 6.22183 12.7375 7.16419 14.2625C8.10655 15.7875 9.55204 17.4833 11.5007 19.35ZM11.5007 22C8.92912 19.7167 7.00846 17.5958 5.73867 15.6375C4.46888 13.6792 3.83398 11.8667 3.83398 10.2C3.83398 7.7 4.60464 5.70833 6.14596 4.225C7.68728 2.74167 9.47218 2 11.5007 2C13.5291 2 15.314 2.74167 16.8553 4.225C18.3967 5.70833 19.1673 7.7 19.1673 10.2C19.1673 11.8667 18.5324 13.6792 17.2626 15.6375C15.9928 17.5958 14.0722 19.7167 11.5007 22Z" fill="#1D1B20"/>
</svg>
