<svg width="30" height="30" viewBox="0 0 30 30" fill="none" xmlns="http://www.w3.org/2000/svg">
<path d="M26.8018 13.8125L15.3143 25.3C13.907 26.7073 11.9983 27.4979 10.0081 27.4979C8.01785 27.4979 6.10913 26.7073 4.70183 25.3C3.29452 23.8927 2.50391 21.984 2.50391 19.9938C2.50391 18.0035 3.29452 16.0948 4.70183 14.6875L16.1893 3.20002C17.1275 2.26182 18.4 1.73474 19.7268 1.73474C21.0536 1.73474 22.3261 2.26182 23.2643 3.20002C24.2025 4.13822 24.7296 5.4107 24.7296 6.73752C24.7296 8.06434 24.2025 9.33682 23.2643 10.275L11.7643 21.7625C11.2952 22.2316 10.659 22.4952 9.99558 22.4952C9.33217 22.4952 8.69593 22.2316 8.22683 21.7625C7.75773 21.2934 7.49419 20.6572 7.49419 19.9938C7.49419 19.3304 7.75773 18.6941 8.22683 18.225L18.8393 7.62502" stroke="#1E1E1E" stroke-width="1.6" stroke-linecap="round" stroke-linejoin="round"/>
</svg>
